<svg width="100" height="100" viewBox="0 0 100 100" fill="none" xmlns="http://www.w3.org/2000/svg">
<path d="M49.7949 2.51052e-07C39.9466 0.000989136 30.3197 2.92226 22.1316 8.3944C13.9436 13.8665 7.56199 21.6438 3.79389 30.7427C0.02579 39.8417 -0.959604 49.8536 0.962312 59.5126C2.88423 69.1715 7.62714 78.0437 14.5913 85.0071C21.5554 91.9706 30.4281 96.7126 40.0872 98.6336C49.7464 100.555 59.7582 99.5681 68.8568 95.7991C77.9553 92.0301 85.732 85.6477 91.2033 77.4591C96.6746 69.2705 99.5949 59.6433 99.5949 49.795C99.5949 43.2554 98.3068 36.7799 95.804 30.7381C93.3013 24.6964 89.6329 19.2068 85.0085 14.5828C80.3841 9.95889 74.8942 6.29112 68.8522 3.78898C62.8102 1.28684 56.3345 -0.000656401 49.7949 2.51052e-07ZM36.5089 73.868H25.5749V38.547H36.5089V73.868ZM30.9909 33.921C29.6995 33.9315 28.4341 33.5581 27.3553 32.8483C26.2764 32.1385 25.4327 31.1241 24.9313 29.934C24.4299 28.7439 24.2933 27.4317 24.5388 26.1638C24.7844 24.896 25.401 23.7296 26.3106 22.8128C27.2201 21.896 28.3814 21.27 29.6473 21.0143C30.9132 20.7586 32.2265 20.8846 33.4205 21.3765C34.6146 21.8684 35.6357 22.7039 36.3541 23.7771C37.0726 24.8502 37.4561 26.1126 37.4559 27.404C37.4625 29.1254 36.7852 30.779 35.5728 32.0012C34.3605 33.2233 32.7123 33.9139 30.9909 33.921ZM77.4809 73.868H66.6009V55.328C66.6009 50.243 64.6689 47.404 60.6479 47.404C56.2719 47.404 53.9859 50.36 53.9859 55.328V73.868H43.4999V38.547H53.9859V43.304C55.1053 41.4952 56.6741 40.0071 58.5393 38.9845C60.4046 37.962 62.5029 37.4399 64.6299 37.469C72.1199 37.469 77.4809 42.042 77.4809 51.503V73.868Z" fill="url(#paint0_linear_659_882)"/>
<defs>
<linearGradient id="paint0_linear_659_882" x1="-196.287" y1="259.93" x2="-125.877" y2="330.34" gradientUnits="userSpaceOnUse">
<stop stop-color="white"/>
</linearGradient>
</defs>
</svg>
