<svg width="128" height="37" viewBox="0 0 128 37" fill="none" xmlns="http://www.w3.org/2000/svg">
<path d="M27.1642 0L19.0291 22.9353C18.211 25.2416 16.0292 26.7827 13.5821 26.7827C11.135 26.7827 8.95321 25.2416 8.13517 22.9353L0 0C4.14294 0 7.81728 2.66099 9.10955 6.59723L11.6206 14.246C12.2437 16.1437 14.9275 16.146 15.5538 14.2493L18.0936 6.55731C19.3858 2.64356 23.0427 0 27.1642 0Z" fill="#022C87"/>
<path d="M50.7421 15.7947C50.7421 16.8845 49.8053 17.7023 48.7155 17.7023H37.4584C36.5977 17.7023 35.8871 18.4517 36.1784 19.2616C36.3921 19.856 36.7066 20.3536 37.1218 20.7545C37.8849 21.4412 38.8132 21.7846 39.9069 21.7846C42.484 21.7846 44.9519 19.7244 47.529 19.7244H50.2461C49.89 21.1233 49.2414 22.3823 48.3004 23.5014C47.3847 24.6206 46.2274 25.4981 44.8285 26.1339C43.4296 26.7698 41.8654 27.0877 40.1358 27.0877C38.0502 27.0877 36.1934 26.6426 34.5656 25.7524C32.9378 24.8622 31.6661 23.5905 30.7504 21.9372C29.8348 20.284 29.377 18.3509 29.377 16.1381C29.377 13.9253 29.8221 11.9923 30.7123 10.339C31.6279 8.68575 32.8997 7.41401 34.5275 6.5238C36.1553 5.63359 38.0247 5.18848 40.1358 5.18848C42.196 5.18848 44.0273 5.62087 45.6297 6.48565C47.2321 7.35043 48.4784 8.58401 49.3686 10.1864C50.2843 11.7888 50.7421 13.6582 50.7421 15.7947ZM41.0624 14.0779C42.721 14.0779 44.1743 12.4935 42.9209 11.4073C42.1579 10.746 41.2041 10.4153 40.0595 10.4153C38.9658 10.4153 38.0375 10.7332 37.2744 11.3691C36.0376 12.4353 37.3719 14.0779 39.0049 14.0779H41.0624Z" fill="#022C87"/>
<path d="M75.3879 8.62236C75.3879 10.1739 75.0318 11.5982 74.3196 12.8954C73.6075 14.1671 72.5138 15.1972 71.0386 15.9857C69.5633 16.7742 67.7321 17.1684 65.5447 17.1684H63.1029C62.218 17.1684 61.5006 17.8858 61.5006 18.7708V20.2587C61.5006 23.8618 58.5797 26.7827 54.9766 26.7827V10.5681C54.9766 4.7315 59.7081 0 65.5447 0C67.6812 0 69.487 0.368803 70.9623 1.10641C72.4375 1.84401 73.5439 2.8614 74.2815 4.15857C75.0191 5.45574 75.3879 6.94367 75.3879 8.62236ZM65.0487 11.9797C66.295 11.9797 67.2234 11.6872 67.8338 11.1022C68.4442 10.5172 68.7494 9.69061 68.7494 8.62236C68.7494 7.5541 68.4442 6.72747 67.8338 6.14247C67.2234 5.55748 66.295 5.26498 65.0487 5.26498H64.8579C63.0037 5.26498 61.5006 6.76813 61.5006 8.62236C61.5006 10.4766 63.0037 11.9797 64.8579 11.9797H65.0487Z" fill="#0096DA"/>
<path d="M78.2891 16.1C78.2891 13.9126 78.696 11.9923 79.5099 10.339C80.3493 8.68575 81.4811 7.41401 82.9055 6.5238C84.3298 5.63359 85.9195 5.18848 87.6745 5.18848C89.1751 5.18848 90.485 5.49369 91.6041 6.10412C92.3398 6.49652 92.9652 6.96773 93.4803 7.51776C93.7237 7.77774 94.2366 7.61593 94.2366 7.25977C94.2366 6.2844 95.0273 5.49369 96.0027 5.49369H97.4986C99.3002 5.49369 100.761 6.95414 100.761 8.75569V23.5205C100.761 25.3221 99.3002 26.7825 97.4986 26.7825H96.4837C95.2427 26.7825 94.2366 25.7765 94.2366 24.5354C94.2366 24.311 93.9282 24.215 93.7858 24.3884C93.2016 25.0998 92.4617 25.6944 91.566 26.1721C90.4468 26.7825 89.137 27.0877 87.6363 27.0877C85.9067 27.0877 84.3298 26.6426 82.9055 25.7524C81.4811 24.8368 80.3493 23.5523 79.5099 21.8991C78.696 20.2204 78.2891 18.2873 78.2891 16.1ZM94.2366 16.1381C94.2366 14.5103 93.7788 13.2258 92.8631 12.2848C91.9729 11.3437 90.8792 10.8731 89.5821 10.8731C88.2849 10.8731 87.1785 11.3437 86.2628 12.2848C85.3726 13.2004 84.9275 14.4721 84.9275 16.1C84.9275 17.7278 85.3726 19.0249 86.2628 19.9915C87.1785 20.9325 88.2849 21.4031 89.5821 21.4031C90.8792 21.4031 91.9729 20.9325 92.8631 19.9915C93.7788 19.0504 94.2366 17.7659 94.2366 16.1381Z" fill="#0096DA"/>
<path d="M128 5.49414L114.647 36.8932C111.354 36.8932 109.158 33.4953 110.511 30.4933L112.25 26.6358C112.416 26.2674 112.421 25.8465 112.264 25.474L103.85 5.49414C108.229 5.49414 112.145 8.22156 113.663 12.3292L113.907 12.9892C114.644 14.9819 117.463 14.9783 118.195 12.9838L118.511 12.1206C119.971 8.14026 123.76 5.49414 128 5.49414Z" fill="#0096DA"/>
</svg>
