<svg width="60" height="60" viewBox="0 0 60 60" fill="none" xmlns="http://www.w3.org/2000/svg">
<path d="M23.9809 8.00078C23.3722 8.51956 23.0678 8.77896 22.7427 8.99686C21.9974 9.49636 21.1604 9.84303 20.2803 10.0168C19.8963 10.0926 19.4976 10.1244 18.7002 10.1881C16.6968 10.3479 15.695 10.4279 14.8593 10.7231C12.9263 11.4058 11.4058 12.9263 10.7231 14.8593C10.4279 15.695 10.348 16.6967 10.1881 18.7002C10.1245 19.4976 10.0926 19.8963 10.0168 20.2803C9.84303 21.1604 9.49636 21.9974 8.99686 22.7427C8.77896 23.0678 8.51953 23.3722 8.00071 23.981C6.69711 25.5107 6.04526 26.2755 5.66306 27.0753C4.77898 28.925 4.77898 31.075 5.66306 32.9248C6.04528 33.7245 6.69708 34.4893 8.00068 36.019C8.51941 36.6278 8.77898 36.9323 8.99686 37.2573C9.49636 38.0025 9.84303 38.8395 10.0168 39.7198C10.0926 40.1038 10.1244 40.5025 10.1881 41.2998C10.3479 43.3033 10.4279 44.305 10.7231 45.1408C11.4058 47.0738 12.9263 48.5943 14.8593 49.277C15.695 49.572 16.6967 49.652 18.7 49.812C19.4974 49.8755 19.8963 49.9075 20.2803 49.9833C21.1604 50.157 21.9974 50.5038 22.7427 51.0033C23.0678 51.221 23.3722 51.4805 23.981 51.9993C25.5108 53.303 26.2755 53.9548 27.0753 54.337C28.925 55.221 31.075 55.221 32.9248 54.337C33.7245 53.9548 34.4893 53.303 36.019 51.9993C36.6278 51.4805 36.9323 51.221 37.2573 51.0033C38.0025 50.5038 38.8395 50.157 39.7198 49.9833C40.1038 49.9075 40.5025 49.8755 41.2998 49.812C43.303 49.652 44.305 49.572 45.1408 49.277C47.0738 48.5943 48.5943 47.0738 49.277 45.1408C49.572 44.305 49.652 43.3033 49.812 41.3C49.8755 40.5028 49.9075 40.1038 49.9833 39.7198C50.157 38.8395 50.5038 38.0025 51.0033 37.2573C51.221 36.9323 51.4805 36.6278 51.9993 36.019C53.303 34.4893 53.9548 33.7245 54.337 32.9248C55.221 31.075 55.221 28.925 54.337 27.0753C53.9548 26.2755 53.303 25.5108 51.9993 23.981C51.4805 23.3722 51.221 23.0678 51.0033 22.7427C50.5038 21.9974 50.157 21.1604 49.9833 20.2803C49.9075 19.8963 49.8755 19.4976 49.812 18.7002C49.652 16.6969 49.572 15.695 49.277 14.8593C48.5943 12.9263 47.0738 11.4058 45.1408 10.7231C44.305 10.4279 43.3033 10.348 41.2998 10.1881C40.5025 10.1245 40.1038 10.0926 39.7198 10.0168C38.8395 9.84303 38.0025 9.49636 37.2573 8.99686C36.9323 8.77896 36.6278 8.51953 36.019 8.00068C34.4893 6.69708 33.7245 6.04528 32.9248 5.66306C31.075 4.77898 28.925 4.77898 27.0753 5.66306C26.2755 6.04526 25.5107 6.69718 23.9809 8.00078Z" fill="#CAD7F4"/>
<path d="M39.5768 20.425C40.3713 21.2196 40.3713 22.5079 39.5768 23.3025L23.2995 39.5798C22.505 40.3743 21.2167 40.3743 20.4221 39.5798C19.6275 38.785 19.6275 37.4968 20.4221 36.7023L36.6993 20.425C37.494 19.6305 38.7823 19.6305 39.5768 20.425Z" fill="#022C87"/>
<path d="M39.4941 36.784C39.4941 38.2823 38.2794 39.497 36.7811 39.497C35.2829 39.497 34.0684 38.2823 34.0684 36.784C34.0684 35.2858 35.2829 34.0713 36.7811 34.0713C38.2794 34.0713 39.4941 35.2858 39.4941 36.784Z" fill="#022C87"/>
<path d="M23.2168 25.9335C24.7151 25.9335 25.9295 24.7189 25.9295 23.2207C25.9295 21.7224 24.7151 20.5078 23.2168 20.5078C21.7185 20.5078 20.5039 21.7224 20.5039 23.2207C20.5039 24.7189 21.7185 25.9335 23.2168 25.9335Z" fill="#022C87"/>
</svg>
