<svg width="1567" height="1057" viewBox="0 0 1567 1057" fill="none" xmlns="http://www.w3.org/2000/svg">
<path d="M8 7.71366L403.247 1051.67L413.693 1051.7L638.176 462.09L505.65 105.08C498.438 81.6399 473.646 22.548 421.807 13.1229C392.056 7.71384 321.393 4.81938 237.893 5.00874C155.926 5.19462 66.0568 5.03412 8 7.71366Z" fill="#0096DA" stroke="white" stroke-width="7"/>
<path d="M413.696 1051.69L770.706 113.186C786.032 78.9278 827.503 10.4108 870.777 10.4108H1189.92C1256.64 12.2139 1429.09 43.7876 1519.89 232.19C1628.07 456.673 1498.25 643.292 1411.7 719.021C1408.82 721.54 1306.22 805.569 1135.83 805.569C965.439 805.569 951.915 792.046 911.346 881.298C870.777 970.551 862.663 1051.69 784.229 1051.69H413.696Z" fill="#022C87"/>
<path d="M413.696 1051.69L770.706 113.186C786.032 78.9278 827.503 10.4108 870.777 10.4108M413.696 1051.69C511.063 1051.69 721.482 1051.69 784.229 1051.69M413.696 1051.69H784.229M870.777 10.4108C914.051 10.4108 1101.57 10.4108 1189.92 10.4108M870.777 10.4108H1189.92M1189.92 10.4108C1256.64 12.2139 1429.09 43.7876 1519.89 232.19C1628.07 456.673 1498.25 643.292 1411.7 719.021C1408.82 721.54 1306.22 805.569 1135.83 805.569C965.439 805.569 951.915 792.046 911.346 881.298C870.777 970.551 862.663 1051.69 784.229 1051.69" stroke="white" stroke-width="7"/>
<path d="M8 7.71366L403.247 1051.67L413.693 1051.7L638.176 462.09L505.65 105.08C498.438 81.6399 473.646 22.548 421.807 13.1229C392.056 7.71384 321.393 4.81938 237.893 5.00874C155.926 5.19462 66.0568 5.03412 8 7.71366Z" stroke="white" stroke-width="10"/>
<path d="M413.696 1051.69L770.706 113.186C786.032 78.9278 827.503 10.4108 870.777 10.4108M413.696 1051.69C511.063 1051.69 721.482 1051.69 784.229 1051.69M413.696 1051.69H784.229M870.777 10.4108C914.051 10.4108 1101.57 10.4108 1189.92 10.4108M870.777 10.4108H1189.92M1189.92 10.4108C1256.64 12.2139 1429.09 43.7876 1519.89 232.19C1628.07 456.673 1498.25 643.292 1411.7 719.021C1408.82 721.54 1306.22 805.569 1135.83 805.569C965.439 805.569 951.915 792.046 911.346 881.298C870.777 970.551 862.663 1051.69 784.229 1051.69" stroke="white" stroke-width="10"/>
</svg>
