<svg width="70" height="70" viewBox="0 0 70 70" fill="none" xmlns="http://www.w3.org/2000/svg">
<circle cx="34.7008" cy="34.7008" r="34.7008" fill="white"/>
<g clip-path="url(#clip0_0_338)">
<path fill-rule="evenodd" clip-rule="evenodd" d="M42.0284 44.3093C42.9091 43.5192 44.5511 42.1222 45.4937 41.3322C45.7973 41.0287 45.7365 40.5421 45.4937 40.1476C44.6726 39.0237 43.6693 38.2641 43.6693 36.1681V28.9395C43.6693 25.9629 43.6693 23.2898 41.5718 21.2551C39.8398 19.5844 37.225 19.0073 35.0363 19.0073C30.7806 19.0073 26.0085 20.6173 25.0052 25.9022C24.8837 26.449 25.3094 26.7828 25.7042 26.8738L30.0512 27.3598C30.4465 27.3295 30.7198 26.8738 30.8114 26.4793C31.1759 24.6569 32.6959 23.7758 34.4285 23.7758C37.378 23.7758 37.225 26.6916 37.225 28.7876C34.6106 29.0911 31.48 29.2737 29.0176 30.3368C26.2211 31.5517 24.2456 34.0422 24.2456 37.6874C24.2456 42.3649 27.194 44.734 30.9937 44.734C34.185 44.734 35.9177 43.9439 38.3801 41.4231C39.2011 42.6077 39.6273 43.428 40.995 44.4912C41.3289 44.7341 41.7541 44.552 42.0284 44.3093ZM33.5467 40.2084C31.8445 40.2084 30.8114 38.9328 30.8114 36.9884C30.8114 33.1617 33.9723 32.3413 37.225 32.3413C37.225 34.3159 37.3778 36.3815 36.3746 38.1123C35.7353 39.2665 34.9149 40.2084 33.5467 40.2084Z" fill="#0D2636"/>
<path fill-rule="evenodd" clip-rule="evenodd" d="M48.4119 46.0702C44.1877 47.8324 39.5967 48.682 35.4324 48.682C29.2618 48.682 23.3039 47.0119 18.471 44.2181C18.0454 43.9438 17.7411 44.4001 18.0757 44.7036C22.5441 48.7437 28.4713 51.1735 35.0372 51.1735C39.7496 51.1735 45.1897 49.7148 48.9597 46.9208C49.567 46.4657 49.0205 45.797 48.4119 46.0702ZM46.1322 45.0069C47.3176 44.8552 50.0237 44.5214 50.5095 45.1586C50.9965 45.7667 49.9629 48.2875 49.5062 49.4417C49.3848 49.7755 49.6885 49.8979 49.9932 49.6541C51.9986 47.9537 52.516 44.4304 52.1212 43.9135C51.695 43.4279 48.169 42.9717 46.0411 44.4911C45.7071 44.7339 45.7678 45.0374 46.1322 45.0069Z" fill="#D6922D"/>
</g>
<defs>
<clipPath id="clip0_0_338">
<rect width="34.3109" height="34.3109" fill="white" transform="translate(17.9351 17.9351)"/>
</clipPath>
</defs>
</svg>
