<svg width="60" height="60" viewBox="0 0 60 60" fill="none" xmlns="http://www.w3.org/2000/svg">
<path opacity="0.5" d="M8.66117 51.3387C12.3223 55 18.2149 55 30 55C41.785 55 47.6777 55 51.3387 51.3387C55 47.6777 55 41.785 55 30C55 18.2149 55 12.3223 51.3387 8.66117C47.6777 5 41.785 5 30 5C18.2149 5 12.3223 5 8.66117 8.66117C5 12.3223 5 18.2149 5 30C5 41.785 5 47.6777 8.66117 51.3387Z" fill="#CAD7F4"/>
<path d="M23.75 21.875C19.2627 21.875 15.625 25.5128 15.625 30C15.625 34.4872 19.2627 38.125 23.75 38.125C28.2372 38.125 31.875 34.4872 31.875 30C31.875 28.9645 32.7145 28.125 33.75 28.125C34.7855 28.125 35.625 28.9645 35.625 30C35.625 36.5585 30.3085 41.875 23.75 41.875C17.1916 41.875 11.875 36.5585 11.875 30C11.875 23.4416 17.1916 18.125 23.75 18.125C24.7855 18.125 25.625 18.9645 25.625 20C25.625 21.0355 24.7855 21.875 23.75 21.875Z" fill="#022C87"/>
<path d="M44.375 30C44.375 34.4872 40.7372 38.125 36.25 38.125C35.2145 38.125 34.375 38.9645 34.375 40C34.375 41.0355 35.2145 41.875 36.25 41.875C42.8085 41.875 48.125 36.5585 48.125 30C48.125 23.4416 42.8085 18.125 36.25 18.125C29.6915 18.125 24.375 23.4416 24.375 30C24.375 31.0355 25.2145 31.875 26.25 31.875C27.2855 31.875 28.125 31.0355 28.125 30C28.125 25.5128 31.7628 21.875 36.25 21.875C40.7372 21.875 44.375 25.5128 44.375 30Z" fill="#022C87"/>
</svg>
