<svg width="60" height="60" viewBox="0 0 60 60" fill="none" xmlns="http://www.w3.org/2000/svg">
<path d="M41.5 4C33.5453 4 27 10.5453 27 18.5C27 26.4547 33.5453 33 41.5 33C49.4547 33 56 26.4547 56 18.5C56 10.5453 49.4547 4 41.5 4ZM46.4117 21.7823C46.3347 22.2112 46.1897 22.6148 45.9859 22.9859C45.3967 24.0637 44.3179 24.8658 43.021 25.1852V26.0846C43.021 26.9191 42.3345 27.6056 41.5 27.6056C40.6655 27.6056 39.979 26.9191 39.979 26.0846V25.1041C38.7957 24.7857 37.732 24.154 36.9249 23.2637C36.3611 22.6411 36.4088 21.6799 37.0314 21.1161C37.6539 20.5513 38.6152 20.599 39.18 21.2215C39.7843 21.8949 40.7762 22.3003 41.7525 22.2953C42.6651 22.2953 43.3272 21.7519 43.4164 21.2479C43.5351 20.5848 42.4755 20.1396 42.1479 20.0179C41.7123 19.8434 41.2695 19.6726 40.8561 19.518C40.1909 19.2666 39.6657 19.0688 39.1415 18.7961C37.4846 17.9332 36.7444 16.036 37.3477 14.3477C37.8081 13.0038 39.0803 12.2408 39.979 11.9182V11.0168C39.979 10.1762 40.6604 9.4958 41.5 9.4958C42.3396 9.4958 43.021 10.1762 43.021 11.0168V11.8645C44.5055 12.2437 45.5103 13.0711 45.5752 13.1259C46.283 13.8367 46.212 14.95 45.5772 15.4814C45.0682 15.9093 44.2408 15.9224 43.6202 15.456L43.6182 15.455C43.5138 15.3739 42.5931 14.6894 41.5 14.7229C41.2992 14.729 41.0924 14.7594 40.8835 14.8223C40.5692 14.9166 40.3451 15.0859 40.2366 15.312C40.1048 15.5878 40.2437 15.9397 40.5469 16.0979C40.9187 16.2938 41.4639 16.4946 41.9299 16.6708C42.3031 16.8127 42.7269 16.9719 43.2238 17.1727C45.996 18.2049 46.6886 20.2299 46.4117 21.7823Z" fill="#022C87"/>
<path d="M26.9871 31.0919L4.97788 39.2012C4.35944 39.4293 3.9614 40.0407 4.00297 40.6985C4.04454 41.3562 4.51625 41.9126 5.15831 42.0612L15.5374 44.4626L17.9388 54.8417C18.1025 55.5088 18.6912 55.9839 19.3614 55.9996C19.9899 56.0144 20.5695 55.6222 20.7988 55.0221L28.9081 33.0129C29.1094 32.4656 28.9738 31.8505 28.5621 31.4379C28.1495 31.0262 27.5354 30.8906 26.9871 31.0919Z" fill="#CAD7F4"/>
<path d="M22.3959 24.5532C22.6938 24.8511 23.0842 25 23.4746 25C23.865 25 24.2554 24.8511 24.5532 24.5532C25.1489 23.9574 25.1489 22.9916 24.5532 22.3959L21.6041 19.4468C21.0084 18.8511 20.0425 18.8511 19.4468 19.4468C18.8511 20.0425 18.8511 21.0083 19.4468 21.604L22.3959 24.5532Z" fill="#022C87"/>
<path d="M15.4786 30H19.5214C20.338 30 21 29.3284 21 28.5C21 27.6716 20.338 27 19.5214 27H15.4786C14.662 27 14 27.6716 14 28.5C14 29.3284 14.662 30 15.4786 30Z" fill="#022C87"/>
<path d="M37.604 35.4468C37.0084 34.8511 36.0425 34.8511 35.4468 35.4468C34.8511 36.0425 34.8511 37.0083 35.4468 37.6041L38.396 40.5532C38.6938 40.8511 39.0842 41 39.4746 41C39.865 41 40.2554 40.8511 40.5532 40.5531C41.1489 39.9574 41.1489 38.9916 40.5532 38.3959L37.604 35.4468Z" fill="#022C87"/>
<path d="M31.5 39C30.6716 39 30 39.662 30 40.4786V44.5214C30 45.338 30.6716 46 31.5 46C32.3284 46 33 45.338 33 44.5214V40.4786C33 39.662 32.3284 39 31.5 39Z" fill="#022C87"/>
</svg>
