<svg width="29" height="29" viewBox="0 0 29 29" fill="none" xmlns="http://www.w3.org/2000/svg">
<g clip-path="url(#clip0_37_412)">
<path d="M20.5423 9.66634V6.04134C20.5423 5.72087 20.415 5.41353 20.1884 5.18692C19.9618 4.96031 19.6545 4.83301 19.334 4.83301H7.25065C6.60971 4.83301 5.99502 5.08762 5.54181 5.54083C5.0886 5.99405 4.83398 6.60873 4.83398 7.24967M4.83398 7.24967C4.83398 7.89061 5.0886 8.5053 5.54181 8.95852C5.99502 9.41173 6.60971 9.66634 7.25065 9.66634H21.7507C22.0711 9.66634 22.3785 9.79365 22.6051 10.0203C22.8317 10.2469 22.959 10.5542 22.959 10.8747V14.4997M4.83398 7.24967V21.7497C4.83398 22.3906 5.0886 23.0053 5.54181 23.4585C5.99502 23.9117 6.60971 24.1663 7.25065 24.1663H21.7507C22.0711 24.1663 22.3785 24.039 22.6051 23.8124C22.8317 23.5858 22.959 23.2785 22.959 22.958V19.333" stroke="black" stroke-width="2" stroke-linecap="round" stroke-linejoin="round"/>
<path d="M24.166 14.5V19.3333H19.3327C18.6917 19.3333 18.0771 19.0787 17.6238 18.6255C17.1706 18.1723 16.916 17.5576 16.916 16.9167C16.916 16.2757 17.1706 15.661 17.6238 15.2078C18.0771 14.7546 18.6917 14.5 19.3327 14.5H24.166Z" stroke="black" stroke-width="2" stroke-linecap="round" stroke-linejoin="round"/>
</g>
<defs>
<clipPath id="clip0_37_412">
<rect width="29" height="29" fill="white"/>
</clipPath>
</defs>
</svg>
