<svg width="32" height="32" viewBox="0 0 32 32" fill="#007bff" xmlns="http://www.w3.org/2000/svg">
<path d="M16 16C14.5334 16 13.2778 15.4778 12.2334 14.4333C11.1889 13.3889 10.6667 12.1333 10.6667 10.6666C10.6667 9.19998 11.1889 7.94442 12.2334 6.89998C13.2778 5.85554 14.5334 5.33331 16 5.33331C17.4667 5.33331 18.7223 5.85554 19.7667 6.89998C20.8112 7.94442 21.3334 9.19998 21.3334 10.6666C21.3334 12.1333 20.8112 13.3889 19.7667 14.4333C18.7223 15.4778 17.4667 16 16 16ZM5.33337 26.6666V22.9333C5.33337 22.1778 5.52782 21.4833 5.91671 20.85C6.3056 20.2166 6.82226 19.7333 7.46671 19.4C8.84448 18.7111 10.2445 18.1944 11.6667 17.85C13.0889 17.5055 14.5334 17.3333 16 17.3333C17.4667 17.3333 18.9112 17.5055 20.3334 17.85C21.7556 18.1944 23.1556 18.7111 24.5334 19.4C25.1778 19.7333 25.6945 20.2166 26.0834 20.85C26.4723 21.4833 26.6667 22.1778 26.6667 22.9333V26.6666H5.33337ZM8.00004 24H24V22.9333C24 22.6889 23.9389 22.4666 23.8167 22.2666C23.6945 22.0666 23.5334 21.9111 23.3334 21.8C22.1334 21.2 20.9223 20.75 19.7 20.45C18.4778 20.15 17.2445 20 16 20C14.7556 20 13.5223 20.15 12.3 20.45C11.0778 20.75 9.86671 21.2 8.66671 21.8C8.46671 21.9111 8.3056 22.0666 8.18337 22.2666C8.06115 22.4666 8.00004 22.6889 8.00004 22.9333V24ZM16 13.3333C16.7334 13.3333 17.3612 13.0722 17.8834 12.55C18.4056 12.0278 18.6667 11.4 18.6667 10.6666C18.6667 9.93331 18.4056 9.30554 17.8834 8.78331C17.3612 8.26109 16.7334 7.99998 16 7.99998C15.2667 7.99998 14.6389 8.26109 14.1167 8.78331C13.5945 9.30554 13.3334 9.93331 13.3334 10.6666C13.3334 11.4 13.5945 12.0278 14.1167 12.55C14.6389 13.0722 15.2667 13.3333 16 13.3333Z" fill="#007bff"/>
</svg>
