<svg width="93" height="36" viewBox="0 0 93 36" fill="none" xmlns="http://www.w3.org/2000/svg">
<path d="M4.0242 29.0278C4.50165 29.0278 4.99615 28.9933 5.5418 28.9415V11.4593C5.5418 8.83605 4.04125 8.23202 1.92684 8.23202C1.44939 8.23202 0.971947 8.26654 0.443344 8.30105V25.3519C0.443344 27.9751 1.84158 29.0105 4.00715 29.0105L4.0242 29.0278ZM0 3.00288C0 4.65964 1.34708 6.04027 2.98405 6.04027C4.62101 6.04027 5.9681 4.65964 5.9681 3.00288C5.9681 1.34612 4.60396 0 2.98405 0C1.36414 0 0 1.34612 0 3.00288ZM9.20792 25.3691C9.20792 27.9923 10.6062 29.0278 12.7717 29.0278C13.2492 29.0278 13.7437 28.9933 14.2893 28.9415V17.2407C14.2893 13.9962 15.9433 12.3567 18.2283 12.3567C20.5132 12.3567 22.1672 13.8408 22.1672 17.0853V25.3691C22.1672 27.9923 23.5655 29.0278 25.731 29.0278C26.2085 29.0278 26.703 28.9933 27.2486 28.9415V17.8102C27.2486 14.9108 26.7882 13.2196 25.9868 11.8389C24.4351 9.18121 21.5875 7.78332 18.2112 7.78332C15.3465 7.78332 12.6865 8.9396 11.0154 11.1314C9.87294 12.6155 9.17382 14.652 9.17382 18.0345V25.3864L9.20792 25.3691ZM30.9147 31.9962C30.9147 34.6194 32.313 35.6548 34.4785 35.6548C34.956 35.6548 35.4505 35.6203 35.9962 35.5686V26.2148C36.9851 28.3202 38.9972 29.4765 41.7255 29.4765C46.6023 29.4765 50.4901 25.3001 50.4901 18.6385C50.4901 16.1534 49.9615 13.9271 48.7508 12.0115C46.9433 9.11218 44.0105 7.80058 40.8047 7.80058C37.599 7.80058 35.0072 9.00863 33.2679 11.2694C31.7503 13.2368 30.9147 15.6184 30.9147 20.6059V32.0307V31.9962ZM36.0132 18.7248C36.0132 15.6012 37.258 12.3567 40.7024 12.3567C43.8058 12.3567 45.2552 15.1007 45.2552 18.5177C45.2552 21.5896 44.0616 24.8859 40.6854 24.8859C37.3091 24.8859 36.0132 22.1764 36.0132 18.7248ZM53.1331 19.001C53.1331 25.4382 56.8674 29.4765 61.659 29.4765C64.3531 29.4765 66.8256 28.2685 67.8999 26.0249C68.1045 28.1304 69.2981 29.0451 71.2591 29.0451C71.7195 29.0451 72.1969 29.0105 72.7085 28.9588V20.5887C72.7085 15.6012 71.9753 13.2196 70.5259 11.2522C68.8548 9.00863 66.2288 7.78332 62.9719 7.78332C59.7151 7.78332 56.9015 9.09492 55.0259 11.9942C53.5253 14.2895 53.1331 16.8092 53.1331 19.001ZM58.368 18.7421C58.368 15.6702 59.6128 12.3567 63.0061 12.3567C66.3993 12.3567 67.61 15.0662 67.6271 18.4487C67.6271 21.7622 66.3993 24.8686 62.8526 24.8686C59.5616 24.8686 58.4021 21.745 58.385 18.7248L58.368 18.7421ZM73.8168 8.52541L81.0297 27.9578C79.802 30.3394 78.489 32.7555 77.3465 34.8437L77.7217 35.1544C78.5231 35.8274 79.4098 36 80.484 36C81.8141 36 82.8713 35.2752 83.7239 33.6874C87.049 27.5609 90.9708 18.9837 92.5567 13.6165C92.8465 12.6673 93 11.8217 93 11.0623C93 9.40556 91.8234 8.35283 89.8795 8.35283C89.4874 8.35283 89.1463 8.35283 88.3278 8.4046C87.5776 11.9252 86.5374 16.2915 84.1672 22.2972C82.5814 17.6721 80.8762 12.5292 80.2453 10.9415C79.5292 9.14669 78.4719 8.19751 76.3916 8.19751C75.5561 8.19751 74.4648 8.2838 73.8339 8.49089L73.8168 8.52541Z" fill="white"/>
</svg>
