<svg width="70" height="70" viewBox="0 0 70 70" fill="none" xmlns="http://www.w3.org/2000/svg">
<circle cx="35.1041" cy="34.7008" r="34.7008" fill="white"/>
<g clip-path="url(#clip0_0_351)">
<path d="M35.4896 29.4861C36.2935 29.4861 36.9552 29.0688 37.0447 28.5282L37.8391 19.5516C37.8391 18.6641 36.7998 17.9353 35.4921 17.9353C34.1868 17.9353 33.1489 18.6641 33.1489 19.5515L33.9417 28.5281C34.0292 29.0687 34.6916 29.486 35.4925 29.486H35.4896" fill="#FAB41D"/>
<path d="M30.6375 32.2906C31.0409 31.5954 31.0097 30.8131 30.5851 30.4661L23.2067 25.2914C22.4402 24.8474 21.2893 25.3818 20.6364 26.5138C19.9816 27.6443 20.0976 28.9077 20.8638 29.3511L29.0328 33.155C29.5443 33.3452 30.2395 32.9809 30.6405 32.2858L30.6375 32.2906Z" fill="#FAB41D"/>
<path d="M40.3438 32.2858C40.7462 32.9809 41.4391 33.3452 41.9507 33.155L50.1209 29.3511C50.8903 28.9077 51.0006 27.6443 50.3502 26.5138C49.6943 25.3818 48.5422 24.8474 47.7772 25.2913L40.3985 30.4662C39.9765 30.8131 39.9452 31.5954 40.3466 32.2907L40.3438 32.2858Z" fill="#FAB41D"/>
<path d="M35.4896 40.699C36.2934 40.699 36.9552 41.1143 37.0446 41.6545L37.8391 50.6305C37.8391 51.5194 36.7998 52.2467 35.4921 52.2467C34.1868 52.2467 33.1489 51.5194 33.1489 50.6305L33.9417 41.6545C34.0292 41.1143 34.6917 40.699 35.4925 40.699H35.4896Z" fill="#FAB41D"/>
<path d="M40.3438 37.8953C40.7462 37.1988 41.4391 36.8371 41.9507 37.0296L50.1209 40.8292C50.8903 41.2743 51.0006 42.5384 50.3502 43.6701C49.6943 44.7984 48.5422 45.3346 47.7772 44.8921L40.3985 39.7212C39.9765 39.3702 39.9452 38.5886 40.3466 37.8939L40.3438 37.8953Z" fill="#FAB41D"/>
<path d="M30.6375 37.8939C31.0409 38.5886 31.0097 39.3702 30.5851 39.7212L23.2067 44.8921C22.4402 45.3346 21.2893 44.7984 20.6364 43.6701C19.9816 42.5384 20.0976 41.2743 20.8638 40.8292L29.0328 37.0296C29.5443 36.8371 30.2395 37.1988 30.6409 37.8953L30.6375 37.8939Z" fill="#FAB41D"/>
</g>
<defs>
<clipPath id="clip0_0_351">
<rect width="34.3109" height="34.3109" fill="white" transform="translate(18.3384 17.9353)"/>
</clipPath>
</defs>
</svg>
