<svg width="70" height="70" viewBox="0 0 70 70" fill="none" xmlns="http://www.w3.org/2000/svg">
<circle cx="34.9024" cy="34.7008" r="34.7008" fill="white"/>
<g clip-path="url(#clip0_0_344)">
<path d="M46.0242 25.1718C46.001 25.0025 45.8528 24.9088 45.7305 24.8986C45.6082 24.8884 43.2214 24.8521 43.2214 24.8521C43.2214 24.8521 41.2251 22.9134 41.028 22.7161C40.8308 22.5187 40.4455 22.5786 40.296 22.6226C40.2938 22.6233 39.9214 22.7386 39.2929 22.9332C39.1881 22.5925 39.0334 22.1741 38.8129 21.7536C38.1021 20.3977 37.0615 19.68 35.8038 19.6782C35.8023 19.6782 35.801 19.6782 35.7995 19.6782C35.7124 19.6782 35.6255 19.6863 35.5385 19.6943C35.5015 19.6497 35.4641 19.6056 35.4248 19.5635C34.8772 18.9774 34.1741 18.6919 33.3324 18.7166C31.7077 18.7631 30.0906 19.9363 28.7789 22.0196C27.8555 23.486 27.1541 25.328 26.9546 26.7537C25.0896 27.3312 23.7847 27.7354 23.7564 27.7442C22.815 28.0396 22.7854 28.0692 22.662 28.9562C22.5685 29.6277 20.1055 48.6761 20.1055 48.6761L40.7503 52.2461L49.6978 50.0221C49.6978 50.0221 46.0473 25.341 46.0242 25.1718ZM28.1111 26.3954C28.6694 23.7853 30.8565 19.8694 33.3637 19.7973C33.7451 19.7893 34.0663 19.873 34.3407 20.0535C33.9019 20.2814 33.4774 20.6088 33.0793 21.0358C32.0474 22.1428 31.257 23.8615 30.9418 25.5189C29.9582 25.8235 28.9962 26.1214 28.1111 26.3954ZM35.5767 24.0838C34.4952 24.4186 33.3144 24.7842 32.13 25.151C32.4634 23.8754 33.0946 22.6053 33.8703 21.7733C34.1589 21.4638 34.5625 21.1184 35.0405 20.9212C35.4901 21.8581 35.5875 23.1864 35.5767 24.0838ZM36.6566 23.7494C36.6446 22.9267 36.5464 21.7826 36.1632 20.7935C37.3958 21.027 38.0027 22.4217 38.2588 23.2533C37.7838 23.4003 37.2427 23.5678 36.6566 23.7494Z" fill="#95BF47"/>
<path d="M45.7297 24.8982C45.6074 24.888 43.2206 24.8517 43.2206 24.8517C43.2206 24.8517 41.2243 22.913 41.0272 22.7156C40.9536 22.642 40.8539 22.6044 40.75 22.5881L40.7505 52.2455L49.697 50.0217C49.697 50.0217 46.0466 25.3406 46.0234 25.1713C46.0002 25.002 45.852 24.9084 45.7297 24.8982Z" fill="#5E8E3E"/>
<path d="M35.7922 29.4989L34.7529 33.3865C34.7529 33.3865 33.5937 32.8586 32.2194 32.9454C30.2043 33.0726 30.1829 34.3437 30.203 34.6623C30.3128 36.401 34.8868 36.7809 35.1439 40.8532C35.3462 44.0571 33.4445 46.2487 30.7043 46.4217C27.4161 46.6293 25.6055 44.6891 25.6055 44.6891L26.3022 41.7246C26.3022 41.7246 28.1244 43.0994 29.583 43.0073C30.5357 42.9471 30.8761 42.1723 30.8416 41.6242C30.6983 39.3562 26.9738 39.4898 26.7385 35.7632C26.5404 32.6267 28.6 29.4493 33.1445 29.1623C34.8955 29.0519 35.7922 29.4989 35.7922 29.4989Z" fill="#EEF3FF"/>
</g>
<defs>
<clipPath id="clip0_0_344">
<rect width="33.5311" height="33.5311" fill="white" transform="translate(18.1367 18.7151)"/>
</clipPath>
</defs>
</svg>
