<svg width="193" height="59" viewBox="0 0 193 59" fill="none" xmlns="http://www.w3.org/2000/svg">
<g clip-path="url(#clip0_66_59555)">
<path d="M9.60514 11.252H-0.000790751V56.2745C-0.0328372 57.368 0.600081 58.3585 1.60955 58.7943C2.94749 59.3568 4.51777 58.7309 5.0946 57.4076C5.2308 57.0748 5.29489 56.6786 5.29489 56.3141V45.0228H9.58111C14.8688 45.0228 19.187 40.7836 19.187 35.554V20.7208C19.155 15.4911 14.8688 11.252 9.61316 11.252H9.60514ZM13.8593 35.554C13.8593 37.8677 11.9526 39.7932 9.5731 39.7932H5.31893V16.4895H9.60514C11.9445 16.4895 13.8914 18.3754 13.8914 20.7287V35.5619H13.8593V35.554Z" fill="#00A4FF"/>
<path d="M29.1222 10.9819C27.8163 11.2117 26.8789 12.3685 26.911 13.6601V42.5262C26.8789 43.8495 27.8163 44.9746 29.1222 45.244C30.5643 45.4738 31.9342 44.5468 32.1666 43.1284C32.1986 42.962 32.1986 42.8273 32.1986 42.6688V13.5967C32.1986 12.1388 31.0289 10.9819 29.5868 10.9502C29.4186 10.9502 29.2824 10.9502 29.1222 10.9819Z" fill="#00A4FF"/>
<path d="M30.4598 0.126794C28.6892 -0.3724 26.8145 0.657683 26.3098 2.44052C26.1415 3.0348 26.1415 3.62908 26.3098 4.23128C26.6142 5.35645 27.5115 6.22013 28.6171 6.51331C30.3877 7.01251 32.2624 5.98242 32.7671 4.19958C32.9354 3.60531 32.9354 3.01103 32.7671 2.40882C32.4627 1.28366 31.5974 0.419971 30.4598 0.126794Z" fill="#00A4FF"/>
<path d="M50.3448 11.252H40.7389V42.5665C40.7069 44.0244 41.9086 45.2447 43.3827 45.2447C44.3842 45.2447 45.2895 44.7455 45.7622 43.8897C45.9625 43.4936 46.0666 43.0657 46.0666 42.5982V16.4816H50.3529C52.6922 16.4816 54.6391 18.3675 54.6391 20.7208V42.5665C54.6391 43.66 55.272 44.6187 56.2494 45.0862C57.4191 45.5854 58.757 45.1892 59.4621 44.1591C59.7986 43.6996 59.9668 43.1291 59.9267 42.5665V20.7208C59.9267 15.4911 55.6405 11.252 50.3529 11.252H50.3448Z" fill="#00A4FF"/>
<path d="M67.082 20.7129V35.5144C67.082 40.744 71.3682 45.0149 76.6559 45.0149H80.9421V49.5156C80.9421 51.8689 79.0033 53.7548 76.6239 53.7865C75.318 53.7865 74.2444 53.0575 73.5795 52.4632C72.5379 51.5044 70.9036 51.5361 69.8941 52.5266C69.3894 52.9862 69.0929 53.6201 69.0929 54.3174C69.0929 55.0146 69.3573 55.7436 69.8941 56.2349C72.7382 58.9844 76.9924 59.7768 80.6377 58.1524C84.0506 56.6628 86.2619 53.1843 86.2619 49.2779V11.252H76.6559C71.4003 11.252 67.1141 15.4911 67.082 20.7208V20.7129ZM80.9421 39.7456H76.6559C74.3165 39.7456 72.3697 37.8598 72.3697 35.5065V20.7049C72.3697 18.3912 74.2765 16.4658 76.6239 16.4658H80.9101L80.9421 39.7377V39.7456Z" fill="#00A4FF"/>
<path d="M104.135 11.252H94.5293V56.2745C94.5293 57.368 95.1622 58.3268 96.1717 58.7943C96.5082 58.929 96.8447 58.9923 97.2132 58.9923C98.1826 58.9923 99.0879 58.4615 99.5526 57.6057C99.7529 57.2095 99.857 56.7816 99.857 56.3141V45.0228H104.143C109.431 45.0228 113.717 40.7836 113.717 35.554V20.7208C113.717 15.4911 109.431 11.252 104.143 11.252H104.135ZM108.389 35.554C108.389 37.8677 106.483 39.7932 104.103 39.7932H99.849V16.4895H104.135C106.475 16.4895 108.421 18.3754 108.421 20.7287V35.5619H108.389V35.554Z" fill="#00A4FF"/>
<path d="M128.571 11.0857C123.916 11.8463 120.607 16.0221 120.607 20.6892V35.5224C120.607 40.1895 123.924 44.3653 128.571 45.1259C133.795 46.0213 138.746 42.5111 139.651 37.3449C139.755 36.814 139.787 36.3148 139.787 35.7918V20.4673C139.787 15.2377 135.469 10.9668 130.181 10.9668C129.645 10.9668 129.108 11.0302 128.571 11.1015V11.0857ZM134.46 35.6175C134.46 37.8044 132.689 39.8567 130.51 40.0231C128.17 40.2212 126.127 38.5017 125.959 36.1801V20.4515C125.927 18.1378 127.802 16.244 130.141 16.2123H130.542C132.721 16.347 134.492 18.4309 134.492 20.6179V35.6175H134.46Z" fill="#00A4FF"/>
<path d="M157.084 11.252H147.479V42.5665C147.479 43.66 148.111 44.6187 149.089 45.0862C150.259 45.5854 151.596 45.1892 152.302 44.1591C152.638 43.6996 152.806 43.1291 152.766 42.5665V16.4816H157.084C159.424 16.4816 161.371 18.3675 161.371 20.7208V42.5665C161.339 43.66 161.972 44.6504 162.981 45.0862C163.317 45.2209 163.654 45.2843 164.023 45.2843C164.992 45.2843 165.897 44.7534 166.362 43.8977C166.562 43.5015 166.666 43.0736 166.666 42.6061V20.7208C166.666 15.4911 162.38 11.252 157.092 11.252H157.084Z" fill="#00A4FF"/>
<path d="M173.82 20.7129V35.5144C173.82 40.744 178.107 45.0149 183.394 45.0149H187.68V49.5156C187.68 51.8689 185.742 53.7548 183.362 53.7865C182.056 53.7865 180.983 53.0575 180.318 52.4632C179.276 51.5044 177.642 51.5361 176.632 52.5266C176.128 52.9862 175.831 53.6201 175.831 54.3174C175.831 55.0146 176.096 55.7436 176.632 56.2349C179.477 59.0161 183.731 59.7768 187.376 58.1524C190.789 56.6628 193 53.1843 193 49.2779V11.252H183.394C178.107 11.252 173.82 15.4911 173.82 20.7208V20.7129ZM187.68 39.7456H183.394C181.055 39.7456 179.108 37.8598 179.108 35.5065V20.7049C179.108 18.3912 181.015 16.4658 183.394 16.4658H187.68V39.7377V39.7456Z" fill="#00A4FF"/>
</g>
<defs>
<clipPath id="clip0_66_59555">
<rect width="193" height="59" fill="white"/>
</clipPath>
</defs>
</svg>
