<svg width="60" height="60" viewBox="0 0 60 60" fill="none" xmlns="http://www.w3.org/2000/svg">
<path d="M35.0975 9.0962L34.5637 8.34844C32.3269 5.21719 27.6733 5.21719 25.4365 8.34844L24.9026 9.0962C23.7216 10.7494 21.7389 11.6347 19.7197 11.4104L17.339 11.1458C13.7671 10.749 10.749 13.7671 11.1458 17.339L11.4104 19.7197C11.6347 21.7389 10.7494 23.7216 9.0962 24.9026L8.34844 25.4365C5.21719 27.6733 5.21719 32.3269 8.34844 34.5637L9.0962 35.0975C10.7494 36.2786 11.6347 38.2614 11.4104 40.2806L11.1458 42.6612C10.749 46.233 13.7671 49.2513 17.339 48.8542L19.7197 48.5898C21.7389 48.3655 23.7216 49.2507 24.9026 50.904L25.4365 51.6515C27.6733 54.7828 32.3269 54.7828 34.5637 51.6515L35.0975 50.904C36.2786 49.2507 38.2614 48.3655 40.2806 48.5898L42.6612 48.8542C46.233 49.2513 49.2513 46.233 48.8542 42.6612L48.5898 40.2806C48.3655 38.2614 49.2507 36.2786 50.904 35.0975L51.6515 34.5637C54.7828 32.3269 54.7828 27.6733 51.6515 25.4365L50.904 24.9026C49.2507 23.7216 48.3655 21.7389 48.5898 19.7197L48.8542 17.339C49.2513 13.7671 46.233 10.749 42.6612 11.1458L40.2806 11.4104C38.2614 11.6347 36.2786 10.7494 35.0975 9.0962Z" fill="#CAD7F4"/>
<path d="M22 29.6499L26.8504 34.7881C27.1171 35.0706 27.5496 35.0706 27.8163 34.7881L38 24" stroke="#022C87" stroke-width="3" stroke-linecap="round" stroke-linejoin="round"/>
</svg>
