<svg width="60" height="60" viewBox="0 0 60 60" fill="none" xmlns="http://www.w3.org/2000/svg">
<path fill-rule="evenodd" clip-rule="evenodd" d="M21.8292 14.4283L14.1738 24.7859C10.962 29.1315 9.35611 31.3043 10.241 33.0125C10.2556 33.041 10.2707 33.069 10.2863 33.0968C11.2236 34.7793 13.9972 34.7793 19.5444 34.7793C22.627 34.7793 24.1683 34.7793 25.135 35.6885L25.185 35.7365L34.865 24.3117L34.815 24.2635C33.8685 23.3347 33.8685 21.8538 33.8685 18.8921V18.1178C33.8685 9.90623 33.8685 5.80046 31.5603 5.09303C29.2518 4.38563 26.7775 7.73318 21.8292 14.4283Z" fill="#022C87"/>
<path d="M26.1318 41.108V41.882C26.1318 50.0935 26.1318 54.1995 28.44 54.9067C30.7485 55.6142 33.2228 52.2667 38.1713 45.5715L45.8265 35.214C49.0385 30.8685 50.6443 28.6957 49.7595 26.9872C49.7448 26.959 49.7298 26.931 49.7143 26.9032C48.7768 25.2207 46.0033 25.2207 40.456 25.2207C37.3735 25.2207 35.8323 25.2207 34.8655 24.3115L25.1855 35.7365C26.132 36.6652 26.1318 38.1462 26.1318 41.108Z" fill="#CAD7F4"/>
</svg>
